<svg width="6090" height="1652" viewBox="0 0 6090 1652" fill="none" xmlns="http://www.w3.org/2000/svg">
<g clip-path="url(#clip0_451_2)">
<path d="M466.793 110.11L501.206 103.41C502.974 103.068 504.599 104.408 504.599 106.204V1556.2C504.599 1557.97 503.031 1559.31 501.292 1559.02L466.879 1553.29C465.51 1553.06 464.484 1551.87 464.484 1550.47V112.904C464.484 111.536 465.453 110.367 466.793 110.11Z" fill="#F3F4F1"/>
<path d="M337.312 180.57L367.791 173.984C369.559 173.613 371.241 174.953 371.241 176.778V1491.09C371.241 1492.89 369.616 1494.23 367.876 1493.88L337.398 1488.24C336.058 1487.98 335.06 1486.81 335.06 1485.44V183.364C335.06 182.024 336.001 180.855 337.312 180.57Z" fill="#F3F4F1"/>
<path d="M233.831 244.456L259.32 238.069C261.117 237.613 262.856 238.982 262.856 240.835V1437.94C262.856 1439.76 261.174 1441.1 259.406 1440.73L233.917 1435.26C232.605 1434.97 231.665 1433.8 231.665 1432.46V247.222C231.665 245.91 232.548 244.77 233.831 244.456Z" fill="#F3F4F1"/>
<path d="M138.523 292.759L159.336 286.629C161.161 286.088 162.986 287.456 162.986 289.367V1391.78C162.986 1393.64 161.246 1395 159.45 1394.55L138.637 1389.3C137.383 1388.99 136.47 1387.85 136.47 1386.54V295.496C136.47 294.242 137.297 293.13 138.523 292.759Z" fill="#F3F4F1"/>
<path d="M62.7913 336.413L80.4968 330.511C82.35 329.884 84.2603 331.281 84.2603 333.219V1348.82C84.2603 1350.7 82.4355 1352.07 80.6393 1351.56L62.9339 1346.51C61.7079 1346.17 60.8525 1345.03 60.8525 1343.77V339.121C60.8525 337.895 61.6509 336.812 62.7913 336.413Z" fill="#F3F4F1"/>
<path d="M1.93876 371.5L19.6442 365.598C21.4975 364.971 23.4077 366.368 23.4077 368.307V1319.16C23.4077 1321.04 21.583 1322.41 19.7868 1321.89L2.08132 1316.85C0.855337 1316.5 0 1315.36 0 1314.11V374.208C0 372.982 0.798314 371.899 1.93876 371.5Z" fill="#F3F4F1"/>
<path d="M622.356 27.4878V15.5131C622.356 12.8045 624.238 10.4951 626.89 9.92489L674.047 0.117022C674.988 -0.0825565 675.958 -0.0255341 676.87 0.231067L1206.07 161.291C1208.46 162.032 1210.12 164.228 1210.12 166.737V1490.23C1210.12 1492.77 1208.46 1494.99 1206.04 1495.7L681.432 1651.29C680.434 1651.57 679.379 1651.6 678.381 1651.35L626.633 1637.94C624.124 1637.29 622.356 1635.04 622.356 1632.41V27.4878Z" fill="#F3F4F1"/>
</g>
<path d="M2099.65 1458.77H1578.94V193.444H2099.65C2479.77 193.444 2639.45 410.407 2639.45 826.975C2639.45 1245.28 2474.56 1458.77 2099.65 1458.77ZM1768.13 361.807V1290.41H2096.18C2337.44 1290.41 2441.58 1182.79 2441.58 932.853V721.097C2441.58 464.213 2327.03 361.807 2096.18 361.807H1768.13ZM2696.41 1002.28C2696.41 854.747 2736.33 740.19 2816.17 655.141C2896.01 570.091 3003.63 528.434 3139.01 528.434C3270.92 528.434 3376.8 570.091 3458.38 655.141C3539.96 738.455 3581.62 854.747 3581.62 1002.28C3581.62 1146.34 3541.69 1262.64 3463.59 1347.69C3385.48 1432.74 3276.13 1476.13 3139.01 1476.13C3001.89 1476.13 2894.28 1434.47 2814.43 1349.42C2736.33 1264.37 2696.41 1148.08 2696.41 1002.28ZM2878.66 934.589V1076.92C2878.66 1236.6 2988 1326.86 3139.01 1326.86C3290.02 1326.86 3397.63 1234.87 3397.63 1076.92V934.589C3397.63 780.111 3290.02 679.441 3139.01 679.441C2984.53 679.441 2878.66 780.111 2878.66 934.589ZM3634.7 1002.28C3634.7 854.747 3674.62 740.19 3754.47 655.141C3834.31 570.091 3941.92 528.434 4077.31 528.434C4209.22 528.434 4315.1 570.091 4396.68 655.141C4478.26 738.455 4519.91 854.747 4519.91 1002.28C4519.91 1146.34 4479.99 1262.64 4401.88 1347.69C4323.78 1432.74 4214.43 1476.13 4077.31 1476.13C3940.19 1476.13 3832.57 1434.47 3752.73 1349.42C3674.62 1264.37 3634.7 1148.08 3634.7 1002.28ZM3816.95 934.589V1076.92C3816.95 1236.6 3926.3 1326.86 4077.31 1326.86C4228.31 1326.86 4335.93 1234.87 4335.93 1076.92V934.589C4335.93 780.111 4228.31 679.441 4077.31 679.441C3922.83 679.441 3816.95 780.111 3816.95 934.589ZM4573 1002.28C4573 854.747 4612.92 740.19 4692.76 655.141C4772.61 570.091 4880.22 528.434 5015.6 528.434C5147.52 528.434 5253.4 570.091 5334.97 655.141C5416.55 738.455 5458.21 854.747 5458.21 1002.28C5458.21 1146.34 5418.29 1262.64 5340.18 1347.69C5262.07 1432.74 5152.73 1476.13 5015.6 1476.13C4878.48 1476.13 4770.87 1434.47 4691.03 1349.42C4612.92 1264.37 4573 1148.08 4573 1002.28ZM4755.25 934.589V1076.92C4755.25 1236.6 4864.6 1326.86 5015.6 1326.86C5166.61 1326.86 5274.22 1234.87 5274.22 1076.92V934.589C5274.22 780.111 5166.61 679.441 5015.6 679.441C4861.13 679.441 4755.25 780.111 4755.25 934.589ZM5721.72 545.791H6037.62V695.062H5742.55V1458.77H5563.78V702.005C5563.78 611.748 5596.75 545.791 5721.72 545.791Z" fill="#F3F4F1"/>
<defs>
<clipPath id="clip0_451_2">
<rect width="1210.1" height="1651.57" fill="white"/>
</clipPath>
</defs>
</svg>
