<svg xmlns="http://www.w3.org/2000/svg" id="Camada_2" viewBox="0 0 614 212"><defs><style>.cls-1{fill:#333;}.cls-2{fill:#676767;}.cls-3{fill:#65b746;}.cls-4{fill:none;stroke:#fff;stroke-linecap:round;stroke-linejoin:round;stroke-width:40px;}.cls-5{fill:#359846;}</style></defs><g id="Camada_1-2"><path class="cls-4" d="m354.18,155.46c2.79,14.43,31.65,27.86,31.65,27.86,8.98,4.53,19.4,6.93,29.79,8,5.43.56,10.83.69,16.16.69,3.33,0,7.24-.29,10.55-.92,1.21-.23,4.2-.85,5.47-1.23,19.99-5.92,32.47-21.46,39.05-40.61"></path><path class="cls-3" d="m444.52,102.44c-6.92-.49-13.39-1.32-20.32-1.41-9.69-.12-18.1-.77-27.61.87-4.46.77-7.94,1.53-10.47,2.36-6.41,2.1-10.18,3.95-15.5,8.1-.71.55-2.72,2.54-3.49,3.38-5.03,5.52-9.35,14.19-10.16,21.62-1.08,9.79.05,20.85,2.65,30.54-.52-.63-.6-.94-1.11-1.76-.51-.83-.82-1.41-1.03-1.9-1.21-2.26-2.22-5.1-3-7.7-1.22-4.11-1.49-5.45-2.05-8.5-.59-3.21-.75-4.71-1.06-7.02-.31-2.31-.49-5.21-.46-7.2.08-4.65.72-9.78,2.02-14.25,1.22-4.19,3.15-7.85,5.48-11.54,2.47-3.91,5.59-7.46,9.09-10.49,2.13-1.85,4.62-3.79,6.83-5.08,5.24-3.05,7.12-3.63,11.33-4.96,6.96-2.21,12.54-3.33,19.73-4.15,4.89-.55,12.3-.87,17.22-.87,10.41,0,22.78.82,32.73,2.05,1.49.18,11.6,1.22,13.45,1.42,0-.01,1.22-13.97,2.77-20.77.95-4.16,2.03-8.3,3.47-12.33,7.97-22.29,27.42-40.72,50.3-46.89,12.61-3.4,26.15-4.69,39.12-3.31,5.6.6,11.14,1.91,16.47,3.72,1.28.43,2.75,1.03,4.11,1.64.72.33,1.21.59,1.98.98.84.42,1.69.97,2.28,1.39,1.18.82.77.49,1.74,1.18.52.37.92.64,1.51,1.11l.71.56c.59.45,1.13.91,1.23,1,.24.22,1.12.98,1.48,1.27,0,0-5.04-2.09-7.77-2.85-1.22-.34-2.43-.73-3.67-1.03-1.72-.42-3.42-.74-4.9-.98-6.11-.98-11.99-1.68-18.18-1.62-19.78.22-38.08,10.53-48.95,27.03-1.71,2.6-2.42,3.64-4.51,7.98-2.79,5.78-6.14,14.06-8.16,22.44-2.93,12.13-3.98,23.9-3.98,23.9l-.08-.28s13.04,1.31,27.17,1.62c10.29.22,21.05-.13,28.58-.72.83-.06,3.12-.38,4-.51,1.55-.24,2.5-.32,6.16-1.23,13.97-3.48,27.85-8.65,38.37-19.15,3.23-3.22,4.03-4.1,7.9-10.6,1.13-1.9,1.63-3.46,2.36-5.48.73-2.02,1.15-3.83,1.64-5.94.95-4.1,1.21-8.58,1.21-8.58,1.13,7.38,1.23,10.65-.31,18.03-.66,3.15-1.74,6.72-2.87,9.73-1.36,3.59-3.31,6.98-5.37,10.22-6.58,10.33-15.73,17.64-26.52,23.46-11.65,6.29-20.54,8.12-31.6,9.22-5.55.55-12.74.64-18.32.57-17.58-.19-34.15-1.35-34.27-1.31-.63,4.73-1.25,9.44-1.88,14.17-1.16,8.67-2.33,17.41-5.17,25.68-6.58,19.15-19.07,34.69-39.05,40.61-1.27.38-4.26,1-5.47,1.23-3.31.63-7.22.92-10.55.92-5.33,0-10.73-.13-16.16-.69-10.4-1.07-20.82-3.46-29.79-8-2.1-1.06-4.23-2.16-6.03-3.64,6.06,2.17,11.69,4.26,17.96,5.55,3.61.74,6.06,1.15,10.85,1.55,4.79.4,8.23.47,12.01-.15,6.73-1.11,13.57-2.96,19.32-6.61,5.61-3.56,8.69-6.79,11.39-9.83,2.7-3.04,5.01-6.23,6.93-9.99,2.23-4.37,2.5-5.1,3.93-10.06.77-2.69,1.58-6.11,2-8.23.3-1.52.56-3.29.82-4.82,2.87-16.95,2.72-20.97,3.49-31.42l-23.96-3.21Z"></path><path class="cls-1" d="m0,0h23.05v35L66.37,0h30.27l-46.01,34.93,48.37,50h-30.12l-34.54-37.07-11.29,8.66v28.41H0V0Zm143.72,23.36h21.37l12.28,44.35,12.57-44.35h21.97l-23.37,61.58h-21.67l-12.65-44.86-12.79,44.86h-21.89l-22.63-61.58h22.63l12.57,44.18,11.61-44.18Z"></path><path class="cls-2" d="m.61,113.82c0-.99.21-1.91.62-2.74.41-.84.98-1.56,1.72-2.17.73-.61,1.61-1.08,2.64-1.42,1.03-.34,2.15-.51,3.37-.51s2.33.17,3.35.51c1.02.34,1.9.81,2.64,1.42.74.61,1.32,1.33,1.73,2.17.41.84.62,1.75.62,2.74s-.21,1.91-.62,2.75c-.41.84-.99,1.56-1.73,2.17-.74.61-1.63,1.08-2.64,1.42-1.01.34-2.14.51-3.35.51s-2.34-.17-3.37-.51c-1.03-.34-1.91-.81-2.64-1.42-.73-.61-1.3-1.33-1.72-2.17-.41-.83-.62-1.75-.62-2.75Zm2.06,0c0,.73.14,1.42.43,2.07.29.65.7,1.21,1.25,1.69.55.48,1.21.86,1.99,1.14.78.28,1.65.42,2.61.42s1.83-.14,2.61-.42c.78-.28,1.44-.66,1.99-1.14.55-.48.97-1.04,1.25-1.69.29-.65.43-1.34.43-2.07s-.14-1.42-.43-2.07c-.29-.65-.7-1.21-1.25-1.69-.55-.48-1.21-.86-1.99-1.14-.78-.28-1.65-.42-2.61-.42s-1.83.14-2.61.42c-.78.28-1.44.66-1.99,1.14-.55.48-.97,1.04-1.25,1.69-.29.65-.43,1.34-.43,2.07Zm37.32,4.58c-.78.77-1.66,1.34-2.64,1.7-.98.36-2.05.55-3.19.55-1.21,0-2.34-.17-3.37-.51-1.03-.34-1.91-.81-2.64-1.42-.73-.61-1.3-1.33-1.72-2.17-.41-.83-.62-1.75-.62-2.74s.21-1.91.62-2.75c.41-.84.98-1.56,1.72-2.17.73-.61,1.61-1.08,2.64-1.42,1.03-.34,2.15-.51,3.37-.51s2.25.2,3.25.59c1,.39,1.88.95,2.66,1.66l-1.65,1.01c-.6-.54-1.25-.97-1.96-1.28-.71-.31-1.48-.46-2.3-.46-.96,0-1.83.14-2.61.42-.78.28-1.44.66-1.99,1.14-.55.48-.97,1.04-1.25,1.69-.29.65-.43,1.34-.43,2.07s.14,1.42.43,2.07c.29.65.7,1.21,1.25,1.69.55.48,1.21.86,1.99,1.14.78.28,1.65.42,2.61.42.87,0,1.67-.16,2.39-.49.72-.33,1.34-.76,1.87-1.31l1.58,1.07v.02Zm.28-4.58c0-.99.21-1.91.62-2.74.41-.84.98-1.56,1.72-2.17.73-.61,1.61-1.08,2.64-1.42,1.03-.34,2.15-.51,3.37-.51s2.33.17,3.35.51c1.02.34,1.9.81,2.64,1.42.74.61,1.32,1.33,1.73,2.17.41.84.62,1.75.62,2.74s-.21,1.91-.62,2.75c-.41.84-.99,1.56-1.73,2.17-.74.61-1.63,1.08-2.64,1.42-1.01.34-2.14.51-3.35.51s-2.34-.17-3.37-.51c-1.03-.34-1.91-.81-2.64-1.42-.73-.61-1.3-1.33-1.72-2.17-.41-.83-.62-1.75-.62-2.75Zm2.06,0c0,.73.14,1.42.43,2.07.29.65.7,1.21,1.25,1.69.55.48,1.21.86,1.99,1.14.78.28,1.65.42,2.61.42s1.83-.14,2.61-.42c.78-.28,1.44-.66,1.99-1.14.55-.48.97-1.04,1.25-1.69.29-.65.43-1.34.43-2.07s-.14-1.42-.43-2.07c-.29-.65-.7-1.21-1.25-1.69-.55-.48-1.21-.86-1.99-1.14-.78-.28-1.65-.42-2.61-.42s-1.83.14-2.61.42c-.78.28-1.44.66-1.99,1.14-.55.48-.97,1.04-1.25,1.69-.29.65-.43,1.34-.43,2.07Zm17.17-2.83c0-.24,0-.54-.03-.89-.02-.35-.04-.7-.05-1.06,0-.36-.03-.69-.05-1-.02-.31-.03-.55-.03-.72h2.06c.02.49.04.96.05,1.41.01.45.04.74.09.87h.1c.41-.71,1.1-1.33,2.06-1.84.96-.52,2.08-.77,3.37-.77s2.24.16,3.02.48c.78.32,1.39.74,1.84,1.25.45.52.76,1.11.93,1.79.17.68.26,1.37.26,2.08v7.73h-2.06v-7.65c0-.52-.06-1.04-.17-1.53-.11-.5-.32-.94-.6-1.34-.29-.39-.69-.71-1.2-.94-.52-.23-1.18-.35-2.01-.35-.76,0-1.47.11-2.15.32-.68.22-1.26.54-1.75.99-.49.44-.88,1-1.17,1.66-.29.67-.43,1.45-.43,2.35v6.49h-2.06v-9.33h-.02Zm17.04-11.92h2.06v10.54h.07c.41-.71,1.1-1.33,2.06-1.84.96-.52,2.08-.77,3.37-.77s2.24.16,3.02.48c.78.32,1.39.74,1.84,1.25.45.52.76,1.11.93,1.79.17.68.26,1.37.26,2.08v7.73h-2.06v-7.65c0-.52-.06-1.04-.17-1.53-.11-.5-.32-.94-.6-1.34-.29-.39-.69-.71-1.2-.94-.52-.23-1.18-.35-2.01-.35-.76,0-1.47.11-2.15.32-.68.22-1.26.54-1.75.99-.49.44-.88,1-1.17,1.66-.29.67-.43,1.45-.43,2.35v6.49h-2.06v-21.25h0Zm31.04,18.81c-.8,1-1.79,1.71-2.97,2.14s-2.48.65-3.9.65c-1.21,0-2.31-.17-3.3-.51-.99-.34-1.83-.81-2.54-1.42-.71-.61-1.25-1.33-1.63-2.17-.38-.83-.57-1.76-.57-2.76s.19-1.88.58-2.7c.39-.83.94-1.54,1.65-2.15s1.55-1.09,2.51-1.44c.96-.35,2.03-.52,3.19-.52s2.28.17,3.21.52,1.71.81,2.34,1.38c.63.57,1.1,1.22,1.43,1.96.33.74.48,1.47.48,2.22v1.18h-13.33c0,.36.09.81.26,1.37.17.55.49,1.09.94,1.62.46.53,1.07.98,1.84,1.35.77.38,1.76.56,2.97.56,1.05,0,2.07-.21,3.06-.62.98-.41,1.74-.98,2.27-1.69l1.51,1.04Zm-1.58-5.14c0-.58-.14-1.13-.43-1.63-.29-.5-.68-.95-1.17-1.34-.49-.38-1.08-.69-1.75-.91-.68-.23-1.39-.34-2.15-.34-1.12,0-2.06.19-2.8.56-.74.38-1.33.81-1.77,1.3-.44.49-.74.96-.93,1.42-.18.46-.27.77-.27.94h11.27Zm17.89,5.67c-.78.77-1.66,1.34-2.64,1.7s-2.05.55-3.19.55c-1.21,0-2.34-.17-3.37-.51-1.03-.34-1.91-.81-2.64-1.42-.73-.61-1.3-1.33-1.72-2.17-.41-.83-.62-1.75-.62-2.74s.21-1.91.62-2.75c.41-.84.98-1.56,1.72-2.17.73-.61,1.61-1.08,2.64-1.42,1.03-.34,2.15-.51,3.37-.51s2.25.2,3.25.59,1.88.95,2.66,1.66l-1.65,1.01c-.6-.54-1.25-.97-1.96-1.28-.71-.31-1.48-.46-2.3-.46-.96,0-1.83.14-2.61.42-.78.28-1.44.66-1.99,1.14-.55.48-.97,1.04-1.25,1.69-.29.65-.43,1.34-.43,2.07s.14,1.42.43,2.07c.29.65.7,1.21,1.25,1.69.55.48,1.21.86,1.99,1.14.78.28,1.65.42,2.61.42.87,0,1.67-.16,2.39-.49.72-.33,1.34-.76,1.87-1.31l1.58,1.07v.02Zm1-16.21c0-.36.15-.66.45-.9.3-.24.66-.37,1.1-.37s.8.12,1.1.37c.3.24.45.54.45.9s-.15.66-.45.9c-.3.24-.66.37-1.1.37s-.8-.12-1.1-.37c-.3-.24-.45-.54-.45-.9Zm.51,5.14h2.06v12.99h-2.06v-12.99Zm5.84,3.65c0-.24-.01-.54-.03-.89-.02-.35-.04-.7-.05-1.06-.01-.36-.03-.69-.05-1s-.03-.55-.03-.72h2.06c.02.49.04.96.05,1.41,0,.45.04.74.09.87h.1c.41-.71,1.1-1.33,2.06-1.84.96-.52,2.08-.77,3.37-.77,1.05,0,2.01.22,2.89.66.87.44,1.5,1.16,1.89,2.15.5-.98,1.25-1.69,2.25-2.14,1-.45,2.04-.68,3.14-.68,1.24,0,2.24.16,3.02.48.78.32,1.39.74,1.84,1.25.45.52.76,1.11.93,1.79.17.68.26,1.37.26,2.08v7.73h-2.06v-7.65c0-.52-.06-1.04-.17-1.53-.11-.5-.32-.94-.6-1.34-.29-.39-.69-.71-1.2-.94-.52-.23-1.19-.35-2.01-.35-.96,0-1.75.15-2.37.44-.62.29-1.11.66-1.46,1.11-.35.45-.61.94-.76,1.46-.15.53-.22,1.02-.22,1.49v7.31h-2.06v-7.82c0-1.2-.27-2.17-.81-2.9-.54-.73-1.37-1.1-2.49-1.1-.76,0-1.47.11-2.15.32-.68.22-1.26.54-1.75.99-.49.44-.88,1-1.17,1.66-.29.67-.43,1.45-.43,2.35v6.49h-2.06v-9.33l-.02.03Zm41.2,6.89c-.8,1-1.79,1.71-2.97,2.14-1.18.43-2.48.65-3.9.65-1.21,0-2.31-.17-3.3-.51-.99-.34-1.83-.81-2.54-1.42-.71-.61-1.25-1.33-1.63-2.17-.38-.83-.57-1.76-.57-2.76s.19-1.88.58-2.7c.39-.83.94-1.54,1.65-2.15s1.55-1.09,2.51-1.44c.96-.35,2.03-.52,3.19-.52s2.28.17,3.21.52c.93.35,1.71.81,2.34,1.38.63.57,1.1,1.22,1.43,1.96.33.74.48,1.47.48,2.22v1.18h-13.33c0,.36.09.81.26,1.37.17.55.49,1.09.94,1.62.46.53,1.07.98,1.84,1.35.77.38,1.76.56,2.97.56,1.05,0,2.07-.21,3.06-.62.98-.41,1.74-.98,2.27-1.69l1.51,1.04Zm-1.58-5.14c0-.58-.14-1.13-.43-1.63-.29-.5-.68-.95-1.17-1.34-.49-.38-1.08-.69-1.75-.91-.68-.23-1.39-.34-2.15-.34-1.12,0-2.06.19-2.8.56-.74.38-1.33.81-1.77,1.3s-.74.96-.93,1.42c-.18.46-.27.77-.27.94h11.27Zm4.61-1.75c0-.24,0-.54-.03-.89-.02-.35-.04-.7-.05-1.06-.01-.36-.03-.69-.05-1s-.03-.55-.03-.72h2.06c.02.49.04.96.05,1.41,0,.45.04.74.09.87h.1c.41-.71,1.1-1.33,2.06-1.84.96-.52,2.08-.77,3.37-.77s2.24.16,3.02.48,1.39.74,1.84,1.25c.45.52.76,1.11.93,1.79.17.68.26,1.37.26,2.08v7.73h-2.06v-7.65c0-.52-.06-1.04-.17-1.53-.11-.5-.32-.94-.6-1.34-.29-.39-.69-.71-1.2-.94-.52-.23-1.18-.35-2.01-.35-.76,0-1.47.11-2.15.32-.68.22-1.26.54-1.75.99-.49.44-.88,1-1.17,1.66-.29.67-.43,1.45-.43,2.35v6.49h-2.06v-9.33h-.02Zm24.8-2.14h-4.53v8.46c0,.58.19,1.03.58,1.35.39.32.93.48,1.61.48.39,0,.78-.04,1.18-.13.4-.08.78-.19,1.15-.32l.17,1.52c-.39.11-.84.22-1.34.31-.5.09-.95.14-1.34.14-.73,0-1.36-.09-1.89-.27-.53-.18-.95-.42-1.27-.72-.32-.3-.56-.65-.7-1.06-.15-.4-.22-.84-.22-1.31v-8.46h-3.43v-1.52h3.43v-3.73h2.06v3.73h4.53v1.52h.01Zm.72,4.97c0-.99.21-1.91.62-2.74.41-.84.98-1.56,1.72-2.17.73-.61,1.61-1.08,2.64-1.42,1.03-.34,2.15-.51,3.37-.51s2.33.17,3.35.51c1.02.34,1.9.81,2.64,1.42.74.61,1.32,1.33,1.73,2.17.41.84.62,1.75.62,2.74s-.21,1.91-.62,2.75c-.41.84-.99,1.56-1.73,2.17-.74.61-1.63,1.08-2.64,1.42-1.01.34-2.14.51-3.35.51s-2.34-.17-3.37-.51c-1.03-.34-1.91-.81-2.64-1.42-.73-.61-1.3-1.33-1.72-2.17-.41-.83-.62-1.75-.62-2.75Zm2.06,0c0,.73.14,1.42.43,2.07.29.65.7,1.21,1.25,1.69.55.48,1.21.86,1.99,1.14.78.28,1.65.42,2.61.42s1.83-.14,2.61-.42c.78-.28,1.44-.66,1.99-1.14.55-.48.97-1.04,1.25-1.69.29-.65.43-1.34.43-2.07s-.14-1.42-.43-2.07c-.29-.65-.7-1.21-1.25-1.69-.55-.48-1.21-.86-1.99-1.14-.78-.28-1.65-.42-2.61-.42s-1.83.14-2.61.42c-.78.28-1.44.66-1.99,1.14-.55.48-.97,1.04-1.25,1.69-.29.65-.43,1.34-.43,2.07Zm38.04,4.05c-.8,1-1.79,1.71-2.97,2.14-1.18.43-2.48.65-3.9.65-1.21,0-2.31-.17-3.3-.51-.99-.34-1.83-.81-2.54-1.42-.71-.61-1.25-1.33-1.63-2.17-.38-.83-.57-1.76-.57-2.76s.19-1.88.58-2.7c.39-.83.94-1.54,1.65-2.15.71-.61,1.55-1.09,2.51-1.44.96-.35,2.03-.52,3.19-.52s2.28.17,3.21.52c.93.35,1.71.81,2.34,1.38.63.57,1.1,1.22,1.43,1.96s.48,1.47.48,2.22v1.18h-13.33c0,.36.09.81.26,1.37.17.55.49,1.09.94,1.62.46.53,1.07.98,1.84,1.35.77.38,1.76.56,2.97.56,1.05,0,2.07-.21,3.06-.62.98-.41,1.74-.98,2.27-1.69l1.51,1.04Zm-1.58-5.14c0-.58-.14-1.13-.43-1.63-.29-.5-.68-.95-1.17-1.34-.49-.38-1.08-.69-1.75-.91-.68-.23-1.39-.34-2.15-.34-1.12,0-2.06.19-2.8.56-.74.38-1.33.81-1.77,1.3-.44.49-.74.96-.93,1.42-.18.46-.27.77-.27.94h11.27Zm4.6-1.75c0-.24,0-.54-.03-.89-.02-.35-.04-.7-.05-1.06-.01-.36-.03-.69-.05-1-.02-.31-.03-.55-.03-.72h2.06c.02.49.04.96.05,1.41,0,.45.04.74.09.87h.1c.41-.71,1.1-1.33,2.06-1.84.96-.52,2.08-.77,3.37-.77,1.05,0,2.01.22,2.89.66.87.44,1.5,1.16,1.89,2.15.5-.98,1.25-1.69,2.25-2.14,1-.45,2.04-.68,3.14-.68,1.24,0,2.24.16,3.02.48.78.32,1.39.74,1.84,1.25.45.52.76,1.11.93,1.79.17.68.26,1.37.26,2.08v7.73h-2.06v-7.65c0-.52-.06-1.04-.17-1.53-.11-.5-.32-.94-.6-1.34-.29-.39-.69-.71-1.2-.94-.52-.23-1.19-.35-2.01-.35-.96,0-1.75.15-2.37.44-.62.29-1.11.66-1.46,1.11-.35.45-.61.94-.76,1.46-.15.53-.22,1.02-.22,1.49v7.31h-2.06v-7.82c0-1.2-.27-2.17-.81-2.9-.54-.73-1.37-1.1-2.49-1.1-.76,0-1.47.11-2.15.32-.68.22-1.26.54-1.75.99-.49.44-.88,1-1.17,1.66-.29.67-.43,1.45-.43,2.35v6.49h-2.06v-9.33l-.02.03Zm46.4,3.88c0,.64,0,1.21.02,1.72.01.51.03.98.05,1.41.02.43.05.84.09,1.21.03.38.09.75.15,1.13h-1.92c-.14-.64-.21-1.34-.21-2.11h-.07c-.6.84-1.33,1.46-2.22,1.86-.88.39-2,.59-3.35.59-.69,0-1.36-.07-2.03-.21-.66-.14-1.26-.37-1.79-.68-.53-.31-.96-.71-1.29-1.2-.33-.49-.5-1.08-.5-1.77,0-.99.31-1.78.93-2.37.62-.58,1.38-1.02,2.28-1.31.9-.29,1.87-.48,2.88-.56,1.02-.08,1.92-.13,2.7-.13h2.4v-.79c0-1.13-.42-1.93-1.27-2.42s-1.91-.73-3.19-.73c-1.83,0-3.45.49-4.84,1.46l-1.2-1.15c.76-.6,1.69-1.06,2.82-1.37,1.12-.31,2.2-.46,3.23-.46,1.92,0,3.46.37,4.6,1.11,1.14.74,1.72,1.94,1.72,3.58v3.18h.01Zm-4.12-1.07c-.87,0-1.71.05-2.52.14-.81.09-1.55.25-2.2.48-.65.23-1.17.53-1.56.9-.39.37-.58.84-.58,1.41,0,.39.11.75.33,1.06.22.31.5.56.84.76.34.2.73.35,1.15.45.42.1.85.15,1.29.15,1.1,0,2-.13,2.71-.39.71-.26,1.28-.61,1.7-1.03.42-.42.72-.9.88-1.44s.24-1.07.24-1.62v-.87h-2.28Zm20.84,4.6c-.78.77-1.66,1.34-2.64,1.7-.98.36-2.05.55-3.19.55-.21,0-.37,0-.48-.03l-1.3,1.49.07.06c.3-.13.65-.2,1.07-.2.73,0,1.39.17,1.97.51.58.34.88.84.88,1.52,0,.43-.11.8-.34,1.1-.23.3-.53.54-.91.73-.38.19-.8.33-1.25.42-.46.09-.91.14-1.34.14-1.15,0-2.23-.2-3.26-.59l.48-.9c.76.32,1.63.48,2.61.48.23,0,.47-.02.72-.07.25-.05.49-.12.7-.21.22-.09.4-.22.53-.37.14-.15.21-.34.21-.56,0-.43-.21-.74-.62-.92-.41-.18-.85-.27-1.31-.27-.53,0-1.03.07-1.51.23l-.55-.42,1.96-2.28c-.98-.13-1.89-.39-2.71-.77-.82-.38-1.53-.87-2.11-1.45-.58-.58-1.04-1.25-1.36-2.01-.32-.76-.48-1.58-.48-2.46,0-.99.21-1.91.62-2.75.41-.84.98-1.56,1.72-2.17.73-.61,1.61-1.08,2.64-1.42,1.03-.34,2.15-.51,3.37-.51s2.25.2,3.25.59,1.88.95,2.66,1.66l-1.65,1.01c-.6-.54-1.25-.97-1.96-1.28-.71-.31-1.48-.46-2.3-.46-.96,0-1.83.14-2.61.42-.78.28-1.44.66-1.99,1.14-.55.48-.97,1.04-1.25,1.69-.29.65-.43,1.34-.43,2.07s.14,1.42.43,2.07c.29.65.7,1.21,1.25,1.69.55.48,1.21.86,1.99,1.14.78.28,1.65.42,2.61.42.87,0,1.67-.16,2.39-.49.72-.33,1.34-.76,1.87-1.31l1.58,1.07h-.03Zm13.5-3.53c0,.64,0,1.21.02,1.72.01.51.03.98.05,1.41.02.43.05.84.09,1.21.03.38.09.75.15,1.13h-1.92c-.14-.64-.21-1.34-.21-2.11h-.07c-.6.84-1.33,1.46-2.22,1.86-.88.39-2,.59-3.35.59-.69,0-1.36-.07-2.03-.21-.66-.14-1.26-.37-1.79-.68-.53-.31-.96-.71-1.29-1.2-.33-.49-.5-1.08-.5-1.77,0-.99.31-1.78.93-2.37.62-.58,1.38-1.02,2.28-1.31.9-.29,1.87-.48,2.88-.56,1.02-.08,1.92-.13,2.7-.13h2.4v-.79c0-1.13-.42-1.93-1.27-2.42-.85-.49-1.91-.73-3.19-.73-1.83,0-3.45.49-4.84,1.46l-1.2-1.15c.76-.6,1.69-1.06,2.82-1.37,1.12-.31,2.2-.46,3.23-.46,1.92,0,3.46.37,4.6,1.11,1.14.74,1.72,1.94,1.72,3.58v3.18h.01Zm-11.51-10.88c.05-.32.15-.65.31-1,.16-.35.37-.65.62-.92.25-.28.56-.51.93-.69.37-.18.78-.27,1.24-.27s.9.08,1.34.23c.44.15.85.31,1.24.48.39.15.77.3,1.13.44.36.14.71.21,1.03.21.5,0,.88-.14,1.13-.42.25-.28.42-.59.52-.93h1.24c-.05.34-.14.68-.27,1.03-.14.35-.33.66-.57.93-.24.27-.53.49-.86.66-.33.17-.73.25-1.18.25s-.9-.07-1.32-.22c-.42-.15-.84-.3-1.25-.45-.41-.15-.81-.3-1.18-.45-.38-.15-.74-.22-1.08-.22-.53,0-.92.14-1.19.42-.27.28-.45.59-.57.93h-1.26Zm7.38,9.81c-.87,0-1.71.05-2.52.14-.81.09-1.55.25-2.2.48-.65.23-1.17.53-1.56.9-.39.37-.58.84-.58,1.41,0,.39.11.75.33,1.06.22.31.5.56.84.76.34.2.73.35,1.15.45.42.1.85.15,1.29.15,1.1,0,2-.13,2.71-.39.71-.26,1.28-.61,1.7-1.03.42-.42.72-.9.88-1.44s.24-1.07.24-1.62v-.87h-2.28Zm6.67.02c0-.99.21-1.91.62-2.74.41-.84.98-1.56,1.72-2.17.73-.61,1.61-1.08,2.64-1.42,1.03-.34,2.15-.51,3.37-.51s2.33.17,3.35.51c1.02.34,1.9.81,2.64,1.42.74.61,1.32,1.33,1.73,2.17.41.84.62,1.75.62,2.74s-.21,1.91-.62,2.75c-.41.84-.99,1.56-1.73,2.17-.74.61-1.63,1.08-2.64,1.42-1.01.34-2.14.51-3.35.51s-2.34-.17-3.37-.51c-1.03-.34-1.91-.81-2.64-1.42-.73-.61-1.3-1.33-1.72-2.17-.41-.83-.62-1.75-.62-2.75Zm2.06,0c0,.73.14,1.42.43,2.07s.7,1.21,1.25,1.69c.55.48,1.21.86,1.99,1.14.78.28,1.65.42,2.61.42s1.83-.14,2.61-.42c.78-.28,1.44-.66,1.99-1.14.55-.48.97-1.04,1.25-1.69.29-.65.43-1.34.43-2.07s-.14-1.42-.43-2.07c-.29-.65-.7-1.21-1.25-1.69-.55-.48-1.21-.86-1.99-1.14-.78-.28-1.65-.42-2.61-.42s-1.83.14-2.61.42c-.78.28-1.44.66-1.99,1.14-.55.48-.97,1.04-1.25,1.69-.29.65-.43,1.34-.43,2.07Z"></path><path class="cls-5" d="m395.31,128.79c2.25,1.16,4.32,2.57,6.11,4.35,2.16,2.16,3.25,4.75,2.73,7.23-.6,2.91-1.38,3.88-3.56,6.4-.98,1.13-3.44,3.22-4.31,5.07-.74,1.57-.79,2.83.15,4.3.94,1.47,2.05,2.36,3.85,3.07,6.21,2.49,12.93-.89,17.95-4.45,3.9-2.76,4.11-3.89,8.16-5.3,4.46-1.55,9.6-.34,12.24,3.97,2.39,3.89,3.63,7.69,4.65,12.81,14.16-18.95,15.39-32.47,14.47-55.12-7.38,6.56-18.45,11.63-28.21,13.12-8.11,1.23-13.34,1.64-21.66,1.33-8.32-.31-19.09-1.13-26.68-2.36,3.96,1.31,10.38,3.66,14.11,5.58h.01Z"></path><path class="cls-5" d="m595.85,68.36c-13.03-1.25-26.13-1.84-39.22-1.74-7.18.05-14.22.21-21.2,1.91-1.63.39-3.4.75-5,1.35-11.81,4.39-15.86,6.92-20.94,12.37-.71.77-1.62,1.92-2.52,3.96.37-19.32,7.1-38.48,18.92-53.79,2.04-2.65,4.24-5.19,6.74-7.43,4.11-3.67,9.09-7.27,14.74-9.47.91,4.87,1.35,9.82,3,14.49.82,2.34,1.92,4.84,4.16,5.91,3.26,1.56,6.93-.69,10.28-2.03,2.2-.88,4.56-1.37,6.92-1.45,3.4-.11,7.37,1.1,8.46,4.31,2.07,6.09-8.69,9.94-8.88,16.37-.08,2.64.7,4.81,2.77,6.46,2.07,1.65,4.72,2.65,7.19,3.57,4.67,1.76,9.92,3.46,14.59,5.21h0Z"></path></g></svg>