<?xml version="1.0" encoding="UTF-8" standalone="no"?>
<svg
   width="500"
   zoomAndPan="magnify"
   viewBox="0 0 375 374.999991"
   height="500"
   preserveAspectRatio="xMidYMid meet"
   version="1.2"
   id="svg6"
   sodipodi:docname="corner1.svg"
   inkscape:version="1.4.2 (ebf0e940d0, 2025-05-08)"
   xmlns:inkscape="http://www.inkscape.org/namespaces/inkscape"
   xmlns:sodipodi="http://sodipodi.sourceforge.net/DTD/sodipodi-0.dtd"
   xmlns="http://www.w3.org/2000/svg"
   xmlns:svg="http://www.w3.org/2000/svg">
  <sodipodi:namedview
     id="namedview6"
     pagecolor="#ffffff"
     bordercolor="#000000"
     borderopacity="0.25"
     inkscape:showpageshadow="2"
     inkscape:pageopacity="0.0"
     inkscape:pagecheckerboard="0"
     inkscape:deskcolor="#d1d1d1"
     inkscape:zoom="1.4142136"
     inkscape:cx="133.64318"
     inkscape:cy="264.81149"
     inkscape:window-width="1920"
     inkscape:window-height="998"
     inkscape:window-x="0"
     inkscape:window-y="533"
     inkscape:window-maximized="1"
     inkscape:current-layer="77abfcc60b" />
  <defs
     id="defs3">
    <clipPath
       id="39a5e842b3">
      <path
         d="M 233 183 L 374 183 L 374 235.839844 L 233 235.839844 Z M 233 183 "
         id="path1" />
    </clipPath>
    <clipPath
       id="eb4fe43e56">
      <path
         d="M 6 151 L 126 151 L 126 235.839844 L 6 235.839844 Z M 6 151 "
         id="path2" />
    </clipPath>
    <clipPath
       id="98c85d6a2d">
      <path
         d="M 100 139.089844 L 316 139.089844 L 316 235.839844 L 100 235.839844 Z M 100 139.089844 "
         id="path3" />
    </clipPath>
  </defs>
  <g
     id="77abfcc60b"
     transform="matrix(1.0183893,0,0,1.0215094,-5.836719,134.31696)">
    <g
       clip-rule="nonzero"
       clip-path="url(#39a5e842b3)"
       id="g4">
      <path
         style="fill:#4d9b44;fill-opacity:1;fill-rule:evenodd;stroke:none"
         d="m 373.96484,215.86328 v 19.97656 h -97.3164 c 0,0 -22.20313,-11.29687 -24.64063,-19.28906 0,0 4.47656,-3.38281 14.90235,-4.37109 0,0 -6.32813,-1.46485 -17.9336,2.1289 0,0 -14.59375,-12.9375 -15.38281,-30.27734 0,0 5.07812,-1.25 15.78125,-0.84375 l 3.79297,6.42578 -1.65235,-6.14062 c 0,0 28.35157,-0.57422 43.74219,3.30859 0,0 2.92188,3.21484 6.04297,15.875 L 300.125,188.15234 c 0,0 5.17187,-0.19531 6.42969,2.23828 1.26172,2.4375 4.77343,16.16407 4.77343,16.16407 l -1.36328,-15.38282 c 0,0 39.40235,7.95704 64,24.69141 z m 0,0"
         id="path4" />
    </g>
    <g
       clip-rule="nonzero"
       clip-path="url(#eb4fe43e56)"
       id="g5">
      <path
         style="fill:#4d9b44;fill-opacity:1;fill-rule:evenodd;stroke:none"
         d="m 8.84375,235.83984 c 0,0 -7.785156,-26.21484 3.78125,-42.77343 0,0 14.699219,24.2539 16.34375,28.40625 1.640625,4.15234 6.414062,1.25 4.027344,-2.53907 -2.386719,-3.78906 -15.597656,-23.49218 -14.835938,-33.28515 0.761719,-9.79297 14.835938,-15.57032 14.835938,-15.57032 0,0 10.6875,28.25391 14.699218,31.15625 4.011719,2.90235 4.78125,0.11719 4.660157,-1.89453 -0.117188,-2.01172 -15.230469,-20.23047 -14.207031,-30.02343 0,0 -0.136719,-5.27735 6.769531,-8.55079 6.90625,-3.27343 12.441406,-6.28125 14.699219,-5.52343 2.261718,0.76172 3.023437,3.26562 3.53125,7.41797 0.507812,4.15234 6.148437,19.45312 8.917968,19.98437 2.765625,0.53516 2.257813,-4.15234 1.378906,-6.16406 -0.878906,-2.01172 -9.910156,-18.44531 -7.507812,-22.60547 0.816406,-0.72266 1.734375,-1.26953 2.757812,-1.63672 1.023438,-0.37109 2.078126,-0.53516 3.167969,-0.49609 3.636719,0.11718 5.777344,15.57031 5.777344,15.57031 0,0 0.507813,1.44531 1.515625,0.84375 1.007812,-0.59766 0.375,-2.64453 0.05078,-3.70313 -0.320312,-1.05468 -2.257812,-11.3164 -0.617187,-12.57421 1.640625,-1.26172 18.972656,-1.64063 27.273437,18.60546 0,0 -1.00781,5.53125 -7.539062,8.05079 -6.53125,2.51953 -8.183594,4.76953 -7.667969,7.02734 0.515625,2.25781 4.890625,-2.01172 6.535156,-3.14453 1.640625,-1.13281 10.050785,-6.76563 11.695315,-6.76563 1.64062,0 6.26953,7.66016 7.66406,22.36719 0,0 -1.76562,6.28516 -18.988281,12.29688 0,0 -1.886719,1.6914 -0.566406,3.01953 1.320312,1.32812 15.281247,-5.91797 20.171877,-10.99219 0,0 5.53516,4.78516 4.66406,14.70703 0,0 -2.64844,5.32813 -14.51953,7.85547 -11.875001,2.52734 -7.414063,3.88281 -7.414063,3.88281 2.074223,0.1875 4.082033,-0.0937 6.023443,-0.84765 3.38671,-1.25782 14.07421,-4.64063 15.46875,-4.13672 1.39843,0.50781 4.57031,12.03515 4.57031,12.03515 z m 0,0"
         id="path5" />
    </g>
    <g
       clip-rule="nonzero"
       clip-path="url(#98c85d6a2d)"
       id="g6">
      <path
         style="fill:#205732;fill-opacity:1;fill-rule:evenodd;stroke:none"
         d="m 125.23438,235.83984 h -9.66407 l -15.33203,-17.39453 c 0,0 18.79297,9.27735 24.9961,17.39453 z m -7.48829,-53.5 c 3.46094,18.82813 24.45703,53.5 24.45703,53.5 h 12.76954 c -12.40625,-31.10547 -37.22657,-53.5 -37.22657,-53.5 z m 23.89844,-23.88281 C 143.84375,171.21875 163,235.83984 163,235.83984 h 5.83984 c -1.09765,-52.0625 -27.19531,-77.38281 -27.19531,-77.38281 z m 25.74219,1.26953 c 1.45312,42.6836 13.125,76.11328 13.125,76.11328 h 4.55859 c -1.09765,-68.67187 -17.68359,-76.11328 -17.68359,-76.11328 z M 281.625,235.83984 c -11.69531,-5.02343 -42.14844,-8.09375 -50.5625,-8.27734 -8.41016,-0.1875 -12.40625,-3.09766 -12.40625,-3.09766 0,0 15.69141,0.17969 35.94922,0 20.25781,-0.17578 61.11328,-9.48047 61.11328,-9.48047 -25.52734,-4.55859 -81.72656,2.71485 -81.72656,2.71485 0,0 27.92578,-16.39844 34.48437,-20.03516 6.5586,-3.63672 30.08985,-30.64844 30.08985,-30.64844 -11.66016,1.82032 -58.73438,38.10157 -58.73438,38.10157 21.53516,-20.41797 30.64063,-46.86328 30.64063,-46.86328 -16.77344,10.58203 -44.14844,56.73046 -44.14844,56.73046 24.10156,-47.60546 23.17969,-75.86718 23.17969,-75.86718 0,0 -23.54297,60.72265 -26.46094,69.66797 -2.92188,8.94921 -6.38281,13.47265 -6.38281,13.47265 l 3.09765,-17.67578 c 5.49219,-36.10156 -2.53906,-61.625 -2.53906,-61.625 -3.46094,15.5 -3.81641,69.28906 -4.17969,76.41016 -0.36328,7.12109 -10.9414,12.58203 -10.9414,12.58203 5.92187,-42.04688 -6.64454,-52.55078 -10.77344,-89.73047 -6.6836,17.44922 8.58984,62.3125 2.74219,93.62109 h 9.67187 l 2.92188,-2.8164 c 1.64062,-2.81641 9.66406,-3.10157 9.66406,-3.10157 14.9414,4.74219 34.48047,5.91797 34.48047,5.91797 z m 0,0"
         id="path6" />
    </g>
  </g>
</svg>
