<?xml version="1.0" encoding="UTF-8" standalone="no"?>
<svg
   width="500"
   zoomAndPan="magnify"
   viewBox="0 0 375 374.999991"
   height="500"
   preserveAspectRatio="xMidYMid meet"
   version="1.2"
   id="svg8"
   sodipodi:docname="corner3.svg"
   inkscape:version="1.4.2 (ebf0e940d0, 2025-05-08)"
   xmlns:inkscape="http://www.inkscape.org/namespaces/inkscape"
   xmlns:sodipodi="http://sodipodi.sourceforge.net/DTD/sodipodi-0.dtd"
   xmlns="http://www.w3.org/2000/svg"
   xmlns:svg="http://www.w3.org/2000/svg">
  <sodipodi:namedview
     id="namedview8"
     pagecolor="#ffffff"
     bordercolor="#000000"
     borderopacity="0.25"
     inkscape:showpageshadow="2"
     inkscape:pageopacity="0.0"
     inkscape:pagecheckerboard="0"
     inkscape:deskcolor="#d1d1d1"
     inkscape:zoom="1.442"
     inkscape:cx="249.65326"
     inkscape:cy="250"
     inkscape:window-width="1920"
     inkscape:window-height="998"
     inkscape:window-x="0"
     inkscape:window-y="533"
     inkscape:window-maximized="1"
     inkscape:current-layer="svg8" />
  <defs
     id="defs4">
    <clipPath
       id="8e8c733058">
      <path
         d="M 202 167 L 374.996094 167 L 374.996094 289.570312 L 202 289.570312 Z M 202 167 "
         id="path1" />
    </clipPath>
    <clipPath
       id="a24ce39f48">
      <path
         d="M 0 85.570312 L 77 85.570312 L 77 289.570312 L 0 289.570312 Z M 0 85.570312 "
         id="path2" />
    </clipPath>
    <clipPath
       id="52e3a6069d">
      <path
         d="M 0 231 L 157 231 L 157 289.570312 L 0 289.570312 Z M 0 231 "
         id="path3" />
    </clipPath>
    <clipPath
       id="dd3a6dce62">
      <path
         d="M 0 153 L 238 153 L 238 289.570312 L 0 289.570312 Z M 0 153 "
         id="path4" />
    </clipPath>
  </defs>
  <g
     id="9f9c12783a"
     transform="translate(0.52011095,86.338418)">
    <g
       clip-rule="nonzero"
       clip-path="url(#8e8c733058)"
       id="g5">
      <path
         style="fill:#4d9b44;fill-opacity:1;fill-rule:evenodd;stroke:none"
         d="m 205.76562,289.57031 c 0,0 -11.23437,-37.8125 5.44532,-61.76953 0,0 21.19531,35.05859 23.5664,41.02734 2.36719,5.96875 9.25,1.8125 5.83594,-3.64843 -3.41016,-5.45703 -22.51953,-33.92969 -21.40234,-48.08594 1.11718,-14.15625 21.33593,-22.48828 21.33593,-22.48828 0,0 15.41407,40.8164 21.19532,45 5.78125,4.18359 6.90625,0.17578 6.72265,-2.73047 -0.18359,-2.90234 -21.92968,-29.21484 -20.47656,-43.40234 0,0 -0.20703,-7.6211 9.78516,-12.33594 9.99218,-4.71875 17.93359,-9.07422 21.19531,-7.98047 3.26172,1.09375 4.35156,4.71484 5.09375,10.70703 0.74219,5.99219 8.85937,28.12109 12.86328,28.85547 4.00391,0.73437 3.26172,-5.98438 1.98438,-8.89844 -1.27344,-2.91015 -14.3125,-26.66015 -10.84375,-32.65234 1.17187,-1.04297 2.49609,-1.83203 3.97265,-2.36328 1.47266,-0.53516 2.9961,-0.77735 4.5625,-0.72266 5.2461,0.18359 8.33985,22.48438 8.33985,22.48438 0,0 0.74218,2.09375 2.19531,1.20312 1.44922,-0.89453 0.53125,-3.82422 0.0742,-5.35937 -0.45703,-1.53516 -3.26172,-16.34375 -0.89063,-18.14454 2.36719,-1.80468 27.35547,-2.37109 39.33594,26.84375 0,0 -1.45313,7.97657 -10.84375,11.625 -9.39453,3.64844 -11.83594,6.87891 -11.09375,10.21875 0.74219,3.33594 7.05469,-2.90625 9.42578,-4.54296 2.36719,-1.63672 14.49609,-9.78125 16.86719,-9.78125 2.36719,0 9.03906,10.98437 11.05859,32.2539 0,0 -2.55078,9.07813 -27.39453,17.76953 0,0 -2.71875,2.44532 -0.83203,4.36328 1.88672,1.92188 22.0625,-8.62109 29.11719,-15.85937 0,0 7.97656,6.90625 6.72656,21.23437 0,0 -3.82031,7.69922 -20.94531,11.34375 -17.125,3.64844 -10.70313,5.60938 -10.70313,5.60938 2.9961,0.25781 5.89453,-0.16797 8.69141,-1.27734 4.91406,-1.8086 20.30469,-6.67579 22.32031,-5.95704 2.01953,0.71875 6.625,17.46094 6.625,17.46094 z m 0,0"
         id="path5" />
    </g>
    <g
       clip-rule="nonzero"
       clip-path="url(#a24ce39f48)"
       id="g6">
      <path
         style="fill:#4d9b44;fill-opacity:1;fill-rule:evenodd;stroke:none"
         d="M 29.339844,289.57031 H 0.320312 V 148.11328 c 0,0 16.417969,-32.25 28.019532,-35.78906 0,0 4.953125,6.5 6.363281,21.64844 0,0 2.128906,-9.17969 -3.101563,-26.05078 0,0 18.800782,-21.214849 43.980469,-22.351568 0,0 1.828125,7.363282 1.269531,22.929688 l -9.34375,5.50781 8.925782,-2.40234 c 0,0 0.835937,41.18359 -4.804688,63.55469 0,0 -4.671875,4.23828 -23.054687,8.76953 l 21.0625,-1.71094 c 0,0 0.285156,7.51172 -3.253907,9.35156 -3.535156,1.83594 -23.472656,6.9336 -23.472656,6.9336 L 65.25,196.51953 c 0,0 -11.585938,57.31641 -35.910156,93.05078 z m 0,0"
         id="path6" />
    </g>
    <g
       clip-rule="nonzero"
       clip-path="url(#52e3a6069d)"
       id="g7">
      <path
         style="fill:#30833f;fill-opacity:1;fill-rule:evenodd;stroke:none"
         d="m 71.386719,239.90625 -1.558594,17.05078 c 0,0 3.921875,-15.20703 5.339844,-17.90234 1.417969,-2.69532 7.128906,-2.50391 7.128906,-2.50391 L 80.957031,252.625 c 3.492188,-14.01953 6.730469,-17.57813 6.730469,-17.57813 17.06641,-4.26562 48.46094,-3.53906 48.46094,-3.53906 l -1.85157,6.80469 4.21485,-7.12109 c 11.875,-0.39063 17.51562,1.01953 17.51562,1.01953 -0.91797,19.19531 -17.13281,33.52734 -17.13281,33.52734 -12.82812,-4.02344 -19.85156,-2.41797 -19.85156,-2.41797 11.54297,1.10938 16.49609,4.89844 16.49609,4.89844 -2.75781,8.89062 -27.38281,21.35156 -27.38281,21.35156 L 0.320312,289.27734 0.378906,267.13281 c 27.292969,-18.46094 71.007813,-27.22656 71.007813,-27.22656 z m 0,0"
         id="path7" />
    </g>
    <g
       clip-rule="nonzero"
       clip-path="url(#dd3a6dce62)"
       id="g8">
      <path
         style="fill:#205732;fill-opacity:1;fill-rule:nonzero;stroke:none"
         d="m 113.01953,277.14844 c 9.08203,7.88281 13.88672,12.42187 13.88672,12.42187 h -12.51172 c 0,0 -23.01953,-21.54297 -28.882811,-41.63281 0.0078,0 18.390621,21.32422 27.507811,29.21094 z m 14.51172,-35.69922 23.00781,48.12109 h 8.95703 C 145.91797,259.1875 127.53125,241.44922 127.53125,241.44922 Z m 38.82812,48.12109 h 7.72657 c -3.53907,-24.78125 -26.125,-54.03125 -26.125,-54.03125 z m -33.57031,-17.21875 c -11.28515,-7.5625 -26.41797,-31.35937 -26.41797,-31.35937 0.91797,11.26562 10.84375,26.25 16.36719,32.59375 5.51953,6.34375 12.19141,15.98437 12.19141,15.98437 h 8.66015 c 0,0 0.45703,-9.64062 -10.80078,-17.21875 z m 57.98047,17.21875 h 9.11328 c -0.78125,-18.1289 -10.84375,-57.13672 -10.84375,-57.13672 z m -21.46484,-57.59375 c 0,0 0.60937,6.49219 1.84375,16.375 1.23437,9.88281 7.57422,41.21875 7.57422,41.21875 H 188 c 0,0 -0.30078,-5.84375 -3.40625,-15.55078 -3.10156,-9.70703 -15.28906,-42.04297 -15.28906,-42.04297 z m 68.25781,31.71875 c 0,0 -9.57813,11.1836 -14.04688,25.875 h 9.875 c 3.04297,-8.35937 4.4336,-16.98437 4.17188,-25.875 z m -33.81641,25.875 h 12.61328 c -1.23437,-22.15234 -6.33984,-50.91797 -6.33984,-50.91797 z M 14.835938,193.12109 c 6.339843,-9.55859 26.433593,-22.29297 26.433593,-22.29297 -9.503906,0.77344 -22.128906,9.1211 -27.476562,13.8125 -5.347657,4.69141 -13.472657,10.29297 -13.472657,10.29297 v 7.3125 c 0,0 8.125,0.38282 14.515626,-9.125 z M 0.320312,221.46094 v 6.51562 C 21.175781,225 45.863281,205.96875 45.863281,205.96875 Z m 40.5625,-32.77344 -40.5625,19.41797 v 7.57031 c 25.609376,-11.46875 40.5625,-26.98828 40.5625,-26.98828 z m -5.46875,-35.46484 c -16.933593,4.94921 -35.09375,24.38281 -35.09375,24.38281 v 10.55078 c 0,0 3.828126,-4.02344 10.46875,-11.6875 6.640626,-7.66406 24.625,-23.24609 24.625,-23.24609 z M 0.320312,269.71094 v 8.34765 c 7.054688,2.57422 14.332032,3.7461 21.839844,3.51563 -6.546875,-5.30469 -13.828125,-9.25781 -21.839844,-11.86328 z m 0,-16.69141 v 10.67578 c 18.667969,-1.04297 42.941407,-5.35156 42.941407,-5.35156 z m 0,-10.95312 v 7.69531 c 15.28125,-0.65625 48.164063,-9.1211 48.164063,-9.1211 z m 48.546876,-18.11329 c 0,0 -5.472657,0.51172 -13.804688,1.55469 -8.332031,1.04297 -34.742188,6.39453 -34.742188,6.39453 v 7.82032 c 0,0 4.90625,-0.25782 13.105469,-2.8711 8.199219,-2.61328 35.441407,-12.89844 35.441407,-12.89844 z m 0,0"
         id="path8" />
    </g>
  </g>
</svg>
