<?xml version="1.0" encoding="UTF-8" standalone="no"?>
<svg
   width="500"
   zoomAndPan="magnify"
   viewBox="0 0 375 374.999991"
   height="500"
   preserveAspectRatio="xMidYMid meet"
   version="1.2"
   id="svg5"
   sodipodi:docname="corner2.svg"
   inkscape:version="1.4.2 (ebf0e940d0, 2025-05-08)"
   xmlns:inkscape="http://www.inkscape.org/namespaces/inkscape"
   xmlns:sodipodi="http://sodipodi.sourceforge.net/DTD/sodipodi-0.dtd"
   xmlns="http://www.w3.org/2000/svg"
   xmlns:svg="http://www.w3.org/2000/svg">
  <sodipodi:namedview
     id="namedview5"
     pagecolor="#ffffff"
     bordercolor="#000000"
     borderopacity="0.25"
     inkscape:showpageshadow="2"
     inkscape:pageopacity="0.0"
     inkscape:pagecheckerboard="0"
     inkscape:deskcolor="#d1d1d1"
     inkscape:zoom="1.442"
     inkscape:cx="249.65326"
     inkscape:cy="250"
     inkscape:window-width="1920"
     inkscape:window-height="998"
     inkscape:window-x="0"
     inkscape:window-y="533"
     inkscape:window-maximized="1"
     inkscape:current-layer="svg5" />
  <defs
     id="defs2">
    <clipPath
       id="dd6150c27d">
      <path
         d="M 140 249 L 372.972656 249 L 372.972656 337.710938 L 140 337.710938 Z M 140 249 "
         id="path1" />
    </clipPath>
    <clipPath
       id="d3e5d5e884">
      <path
         d="M 1.722656 43 L 134 43 L 134 336 L 1.722656 336 Z M 1.722656 43 "
         id="path2" />
    </clipPath>
  </defs>
  <g
     id="2fcdedcd45"
     transform="matrix(1.0126088,0,0,1,-2.1021643,39.528432)">
    <g
       clip-rule="nonzero"
       clip-path="url(#dd6150c27d)"
       id="g3">
      <path
         style="fill:#205732;fill-opacity:1;fill-rule:evenodd;stroke:none"
         d="m 373,273.08984 c -8.85938,30.26953 -43.49219,62.73828 -43.49219,62.73828 h -18.8164 c 0,0 7.18359,-6.83984 20.90625,-18.71875 C 345.31641,305.23047 373,273.08984 373,273.08984 Z m -31.40234,-10.46875 c 0,0 -22.7461,35.90235 -39.76563,47.25782 -17.01562,11.35546 -16.27344,25.94921 -16.27344,25.94921 h 13.04297 c 0,0 10,-14.53125 18.35938,-24.08593 8.36328,-9.55469 23.26172,-32.13282 24.63672,-49.1211 z m -79.98829,73.20703 h 13.5 l 34.63282,-72.51562 c 0,0 -27.67969,26.73047 -48.13282,72.51562 z m 17.31641,-81.42187 c 0,0 -33.9375,44.06641 -39.26953,81.37891 v -0.30079 l -6.83984,-0.57812 c 1.32031,-6.57422 9.50781,-47.5 11.22656,-61.21484 1.85937,-14.89454 2.76953,-24.67969 2.76953,-24.67969 0,0 -18.36328,48.66015 -23.03125,63.35937 -2.30859,6.96485 -3.94922,14.08203 -4.92188,21.35547 h -0.30468 l -0.15625,2.10156 21.08984,1.73047 0.16797,-1.73047 h 11.63281 z m -77.89062,77.83203 -1,-0.082 -0.29297,3.55078 1.07812,0.0859 h 0.0898 l 13.53515,1.14453 0.0977,-1.14453 v -0.008 l 0.19531,-2.33204 h -0.125 l 2.48047,-83.66015 c 0,0 -13.89063,53.9375 -16.05859,82.44531 z m -15.53907,-73.21875 c 0,0 -6.85547,38.74219 -9.18359,71.17578 l -0.81641,-0.0703 -0.45312,5.59766 19.78906,1.70312 0.48828,-5.625 -0.88672,-0.0703 z M 144.08594,296.75 c -0.28907,10.53125 0.94531,20.88281 3.70312,31.05078 l -6.2539,-0.52344 -0.6211,7.71875 24.21094,2.03125 0.65234,-7.72656 -2.8789,-0.24219 C 158.26953,317.33203 152,306.55859 144.08594,296.75 Z m 0,0"
         id="path3" />
    </g>
    <path
       style="fill:#4d9b44;fill-opacity:1;fill-rule:evenodd;stroke:none"
       d="m 33.25,335.82812 c 0,0 5.792969,-20.97265 8.273438,-21.86718 2.480468,-0.89453 21.738281,5.19922 27.878906,7.46093 3.492187,1.38282 7.109375,1.91407 10.851562,1.59766 0,0 8.050782,-2.49219 -13.367187,-7.01953 -21.421875,-4.52344 -26.160157,-14.19141 -26.160157,-14.19141 -1.558593,-17.91406 8.40625,-26.55468 8.40625,-26.55468 8.8125,9.08593 33.953126,22.25 36.320313,19.85546 2.363281,-2.39453 -1.003906,-5.45703 -1.003906,-5.45703 C 53.445312,278.78516 50.25,267.47266 50.25,267.47266 c 2.507812,-26.54297 10.878906,-40.375 13.800781,-40.375 2.921875,0 18.140625,10.21093 21.074219,12.22656 2.929688,2.01172 10.878906,9.75781 11.773438,5.67578 0.894531,-4.07813 -2.039063,-8.16016 -13.8125,-12.68359 C 71.3125,227.78906 69.5,217.79297 69.5,217.79297 c 14.949219,-36.52344 46.20313,-35.82422 49.125,-33.5625 2.92578,2.26172 -0.53906,20.75 -1.10547,22.69531 -0.5664,1.94141 -1.6914,5.54297 0.0898,6.6875 1.77734,1.14453 2.73437,-1.5 2.73437,-1.5 0,0 3.85547,-27.88281 10.41016,-28.10547 1.95312,-0.0625 3.84765,0.23828 5.68359,0.90625 1.83984,0.66797 3.48828,1.65235 4.94531,2.95313 4.29688,7.48828 -11.99219,37.1914 -13.58984,40.8125 -1.59375,3.61718 -2.50391,12.01953 2.49219,11.125 4.99609,-0.89844 15.17187,-28.58594 16.0664,-36.07422 0.89453,-7.48828 2.26172,-12.01953 6.35938,-13.38672 4.10156,-1.36719 14.03515,4.08203 26.48047,9.97266 12.44531,5.89062 12.21484,15.42578 12.21484,15.42578 1.81641,17.68359 -25.36328,50.57031 -25.58203,54.20703 -0.22266,3.63672 1.15234,8.64062 8.40625,3.41406 7.2539,-5.22266 26.46875,-56.25391 26.46875,-56.25391 0,0 25.36719,10.42579 26.73437,28.11329 1.36328,17.6914 -22.40234,53.32031 -26.73437,60.10546 -4.33203,6.78907 4.33203,12.01172 7.2539,4.5625 2.92188,-7.45312 29.46094,-51.28906 29.46094,-51.28906 20.84375,29.96094 6.8125,77.22656 6.8125,77.22656 z m 0,0"
       id="path4" />
    <g
       clip-rule="nonzero"
       clip-path="url(#d3e5d5e884)"
       id="g5">
      <path
         style="fill:#205732;fill-opacity:1;fill-rule:evenodd;stroke:none"
         d="M 25.339844,335.82812 1.722656,315 v -13.13281 c 11.03125,8.42968 23.617188,33.96093 23.617188,33.96093 z M 1.722656,261.45703 v 17.35547 c 0,0 47.128906,28.51953 72.640625,33.22266 0,0 -30.421875,-33.71094 -72.640625,-50.57813 z m 0,-18.82422 v 7.94141 c 0,0 87.699219,26.01953 105.035154,29.01953 0,-0.0195 -34.363279,-35.48047 -105.035154,-36.96094 z m 0,-22.04687 v 6.21093 c 0,0 45.390625,15.83594 103.332034,17.80469 0,0 -10.125002,-22.53125 -103.332034,-24.03125 z m 5.316406,-23.06641 c 0,0 7.441407,-14.38672 17.078126,-14.86719 9.636718,-0.48047 82.664062,-0.97656 103.703122,-5.67968 0,0 -34.636716,-10.9375 -83.640622,-3.48438 l -24.023438,4.20313 c 0,0 6.203125,-4.69922 18.292969,-8.67579 12.09375,-3.97265 94.562501,-35.9375 94.562501,-35.9375 0,0 -38.35547,-1.26171 -102.941408,31.48438 0,0 62.636719,-37.19922 76.996098,-59.98047 0,0 -35.886722,12.36719 -63.601566,41.625 0,0 49.242187,-63.953124 51.714844,-79.80078 0,0 -36.628907,31.9375 -41.636719,40.89063 -5.003907,8.95312 -27.191407,46.85156 -27.191407,46.85156 0,0 9.917969,-76.351565 3.71875,-111.046878 0,0 -12.625,55.527344 -12.871093,83.039068 -0.25,27.51171 0,48.83593 0,48.83593 0,0 -3.960938,-5.47265 -4.207031,-16.85547 -0.25,-11.38281 -4.449219,-52.8125 -11.269532,-68.691402 v 41.898432 c 0,0 1.605469,26.54688 8.035156,46.85157 0,0 -0.378906,10.90625 -4.207031,13.13281 l -3.828125,3.97266 v 13.1289 c 42.519532,-7.9375 103.394534,12.82031 127.082034,3.72656 C 78.339844,206.53516 64.085938,189.46484 7.039062,197.51172 Z m 0,0"
         id="path5" />
    </g>
  </g>
</svg>
